<svg width="19" height="19" viewBox="0 0 19 19" xmlns="http://www.w3.org/2000/svg">
<path d="M18.4631 15.6713L14.9429 12.1662C14.784 12.008 14.5686 11.9201 14.3427 11.9201H13.7672C14.7417 10.6791 15.3207 9.11817 15.3207 7.42012C15.3207 3.38067 12.0336 0.10762 7.97672 0.10762C3.91989 0.10762 0.632751 3.38067 0.632751 7.42012C0.632751 11.4596 3.91989 14.7326 7.97672 14.7326C9.68208 14.7326 11.2497 14.1561 12.4961 13.1857V13.7588C12.4961 13.9838 12.5844 14.1982 12.7432 14.3565L16.2634 17.8615C16.5953 18.192 17.132 18.192 17.4603 17.8615L18.4595 16.8666C18.7914 16.5361 18.7914 16.0018 18.4631 15.6713ZM7.97672 11.9201C5.48048 11.9201 3.45736 9.90919 3.45736 7.42012C3.45736 4.93458 5.47695 2.92012 7.97672 2.92012C10.473 2.92012 12.4961 4.93106 12.4961 7.42012C12.4961 9.90567 10.4765 11.9201 7.97672 11.9201Z"/>
</svg>