<svg width="89" height="90" viewBox="0 0 89 90" fill="none" xmlns="http://www.w3.org/2000/svg">
<g clip-path="url(#clip0)">
<path d="M87.7832 77.8775L70.4525 60.5469C69.6703 59.7646 68.6099 59.3301 67.4974 59.3301H64.664C69.4617 53.1939 72.3125 45.476 72.3125 37.0801C72.3125 17.1072 56.1291 0.923828 36.1562 0.923828C16.1834 0.923828 -3.05176e-05 17.1072 -3.05176e-05 37.0801C-3.05176e-05 57.0529 16.1834 73.2363 36.1562 73.2363C44.5521 73.2363 52.2701 70.3855 58.4062 65.5879V68.4213C58.4062 69.5338 58.8408 70.5941 59.623 71.3764L76.9537 88.707C78.5877 90.341 81.2299 90.341 82.8465 88.707L87.7658 83.7877C89.3998 82.1537 89.3998 79.5115 87.7832 77.8775ZM36.1562 59.3301C23.8666 59.3301 13.9062 49.3871 13.9062 37.0801C13.9062 24.7904 23.8492 14.8301 36.1562 14.8301C48.4459 14.8301 58.4062 24.773 58.4062 37.0801C58.4062 49.3697 48.4633 59.3301 36.1562 59.3301Z" fill="var(--primary-stop)"/>
<circle cx="23.5737" cy="37.5672" r="4.20536" fill="var(--primary-stop)"/>
<circle cx="35.589" cy="37.5672" r="4.20536" fill="var(--second-stop)"/>
<circle cx="47.6038" cy="37.5672" r="4.20536" fill="var(--second-stop)"/>
</g>
<defs>
<clipPath id="clip0">
<rect width="89" height="89" fill="white" transform="translate(-3.05176e-05 0.923828)"/>
</clipPath>
</defs>
</svg>
