<svg width="89" height="89" viewBox="0 0 89 89" fill="none" xmlns="http://www.w3.org/2000/svg">
<g clip-path="url(#clip0)">
<path d="M87.7832 76.9537L70.4525 59.623C69.6703 58.8408 68.61 58.4062 67.4975 58.4062H64.6641C69.4617 52.2701 72.3125 44.5521 72.3125 36.1562C72.3125 16.1834 56.1291 0 36.1562 0C16.1834 0 0 16.1834 0 36.1562C0 56.1291 16.1834 72.3125 36.1562 72.3125C44.5521 72.3125 52.2701 69.4617 58.4062 64.6641V67.4975C58.4062 68.61 58.8408 69.6703 59.623 70.4525L76.9537 87.7832C78.5877 89.4172 81.2299 89.4172 82.8465 87.7832L87.7658 82.8639C89.3998 81.2299 89.3998 78.5877 87.7832 76.9537ZM36.1562 58.4062C23.8666 58.4062 13.9062 48.4633 13.9062 36.1562C13.9062 23.8666 23.8492 13.9062 36.1562 13.9062C48.4459 13.9062 58.4062 23.8492 58.4062 36.1562C58.4062 48.4459 48.4633 58.4062 36.1562 58.4062Z" fill="#ADC9FB"/>
<path d="M38.4976 46.4582H33.8356L34.2056 38.3182L27.3236 42.6842L25.0296 38.6882L32.2076 34.9882L25.0296 31.2882L27.3236 27.2182L34.2056 31.5842L33.8356 23.4442H38.4976L38.1276 31.5842L44.9356 27.2182L47.3036 31.2882L40.1256 34.9882L47.3036 38.6882L44.9356 42.6842L38.1276 38.3182L38.4976 46.4582Z" fill="url(#paint0_linear)"/>
</g>
<defs>
<linearGradient id="paint0_linear" x1="11.6056" y1="40.42" x2="56.1635" y2="53.1978" gradientUnits="userSpaceOnUse">
<stop stop-color="#ADC9FB"/>
<stop offset="1" stop-color="#AFADFB"/>
</linearGradient>
<clipPath id="clip0">
<rect width="89" height="89" fill="white"/>
</clipPath>
</defs>
</svg>
