<svg width="180" height="176" viewBox="0 0 180 176" fill="none" xmlns="http://www.w3.org/2000/svg">
<g clip-path="url(#clip0)">
<path d="M118.272 16.1986L25.6947 75.0839C23.05 76.7661 22.2718 80.2767 23.9565 82.9253L24.9732 84.5238L16.9924 89.6002C14.3477 91.2823 13.5695 94.793 15.2542 97.4416L49.8244 151.792C53.7552 157.972 61.9441 159.8 68.1149 155.875L162.289 95.9742C167.578 92.6098 169.135 85.5885 165.765 80.2914L126.111 17.9485C124.427 15.2999 120.917 14.5165 118.272 16.1986ZM62.0143 146.283C61.591 146.553 61.0779 146.643 60.5878 146.533C60.0978 146.424 59.671 146.124 59.4014 145.7L27.8815 96.1456L31.0739 94.1151L62.5937 143.67C62.8634 144.094 62.9538 144.607 62.8452 145.097C62.7365 145.588 62.4376 146.014 62.0143 146.283ZM107.068 113.136L76.7405 132.426C75.4183 133.267 73.6634 132.875 72.8211 131.551L71.8044 129.953C70.9621 128.629 71.3512 126.873 72.6735 126.032L103.001 106.742C104.323 105.901 106.078 106.293 106.92 107.617L107.937 109.215C108.779 110.54 108.39 112.295 107.068 113.136ZM148.568 86.7393L118.241 106.029C116.919 106.87 115.164 106.479 114.321 105.154L113.305 103.556C112.462 102.232 112.852 100.476 114.174 99.6351L144.501 80.3451C145.823 79.5041 147.578 79.8959 148.42 81.2201L149.437 82.8186C150.279 84.1428 149.89 85.8983 148.568 86.7393ZM94.8665 93.9537L64.5393 113.244C63.2171 114.085 61.4622 113.693 60.6199 112.369L59.6031 110.77C58.7609 109.446 59.15 107.691 60.4722 106.85L90.7994 87.5596C92.1216 86.7185 93.8766 87.1103 94.7188 88.4345L95.7356 90.033C96.5779 91.3572 96.1887 93.1127 94.8665 93.9537ZM136.367 67.5569L106.04 86.8469C104.717 87.6879 102.963 87.2961 102.12 85.972L101.103 84.3734C100.261 83.0492 100.65 81.2937 101.973 80.4527L132.3 61.1627C133.622 60.3217 135.377 60.7134 136.219 62.0376L137.236 63.6362C138.078 64.9604 137.689 66.7158 136.367 67.5569ZM124.166 48.3744L52.3381 94.0613C51.0158 94.9023 49.2609 94.5106 48.4187 93.1864L43.3348 85.1937C42.4925 83.8695 42.8817 82.114 44.2039 81.273L116.031 35.5861C117.354 34.7451 119.109 35.1369 119.951 36.4611L125.035 44.4537C125.877 45.7779 125.488 47.5334 124.166 48.3744Z" fill="url(#paint0_linear)" fill-opacity="0.15"/>
</g>
<defs>
<linearGradient id="paint0_linear" x1="28.8695" y1="73.5994" x2="117.121" y2="130.935" gradientUnits="userSpaceOnUse">
<stop stop-color="#A7C0FF"/>
<stop offset="1" stop-color="#DB73FF" stop-opacity="0.5"/>
</linearGradient>
<clipPath id="clip0">
<rect width="136.202" height="121.248" fill="white" transform="translate(0.00265503 73.4635) rotate(-32.4589)"/>
</clipPath>
</defs>
</svg>
