<svg width="496" height="98" viewBox="0 0 496 98" xmlns="http://www.w3.org/2000/svg">
<path d="M152.035 1.62353L121.12 96.1235H97.63L76.84 32.1335L55.375 96.1235H32.02L0.97 1.62353H23.65L44.98 68.0435L67.255 1.62353H87.505L109.105 68.5835L131.11 1.62353H152.035ZM216.923 97.7435C207.113 97.7435 198.248 95.6285 190.328 91.3985C182.498 87.1685 176.333 81.3635 171.833 73.9835C167.423 66.5135 165.218 58.1435 165.218 48.8735C165.218 39.6035 167.423 31.2785 171.833 23.8985C176.333 16.4285 182.498 10.5785 190.328 6.34853C198.248 2.11853 207.113 0.00353348 216.923 0.00353348C226.733 0.00353348 235.553 2.11853 243.383 6.34853C251.213 10.5785 257.378 16.4285 261.878 23.8985C266.378 31.2785 268.628 39.6035 268.628 48.8735C268.628 58.1435 266.378 66.5135 261.878 73.9835C257.378 81.3635 251.213 87.1685 243.383 91.3985C235.553 95.6285 226.733 97.7435 216.923 97.7435ZM216.923 79.1135C222.503 79.1135 227.543 77.8535 232.043 75.3335C236.543 72.7235 240.053 69.1235 242.573 64.5335C245.183 59.9435 246.488 54.7235 246.488 48.8735C246.488 43.0235 245.183 37.8035 242.573 33.2135C240.053 28.6235 236.543 25.0685 232.043 22.5485C227.543 19.9385 222.503 18.6335 216.923 18.6335C211.343 18.6335 206.303 19.9385 201.803 22.5485C197.303 25.0685 193.748 28.6235 191.138 33.2135C188.618 37.8035 187.358 43.0235 187.358 48.8735C187.358 54.7235 188.618 59.9435 191.138 64.5335C193.748 69.1235 197.303 72.7235 201.803 75.3335C206.303 77.8535 211.343 79.1135 216.923 79.1135ZM353.374 96.1235L335.149 69.7985H334.069H315.034V96.1235H293.164V1.62353H334.069C342.439 1.62353 349.684 3.01853 355.804 5.80853C362.014 8.59853 366.784 12.5585 370.114 17.6885C373.444 22.8185 375.109 28.8935 375.109 35.9135C375.109 42.9335 373.399 49.0085 369.979 54.1385C366.649 59.1785 361.879 63.0485 355.669 65.7485L376.864 96.1235H353.374ZM352.969 35.9135C352.969 30.6035 351.259 26.5535 347.839 23.7635C344.419 20.8835 339.424 19.4435 332.854 19.4435H315.034V52.3835H332.854C339.424 52.3835 344.419 50.9435 347.839 48.0635C351.259 45.1835 352.969 41.1335 352.969 35.9135ZM400.536 1.62353H443.466C453.726 1.62353 462.771 3.60353 470.601 7.56353C478.521 11.4335 484.641 16.9235 488.961 24.0335C493.371 31.1435 495.576 39.4235 495.576 48.8735C495.576 58.3235 493.371 66.6035 488.961 73.7135C484.641 80.8235 478.521 86.3585 470.601 90.3185C462.771 94.1885 453.726 96.1235 443.466 96.1235H400.536V1.62353ZM442.386 78.1685C451.836 78.1685 459.351 75.5585 464.931 70.3385C470.601 65.0285 473.436 57.8735 473.436 48.8735C473.436 39.8735 470.601 32.7635 464.931 27.5435C459.351 22.2335 451.836 19.5785 442.386 19.5785H422.406V78.1685H442.386Z" fill="url(#paint0_linear)"/>
<defs>
<linearGradient id="paint0_linear" x1="10.5343" y1="39.9885" x2="564.482" y2="42.7212" gradientUnits="userSpaceOnUse">
<stop stop-color="#F6EEF9"/>
<stop offset="1" stop-color="#EBEBEB" stop-opacity="0.5"/>
</linearGradient>
</defs>
</svg>
